<?xml version="1.0" encoding="UTF-8"?>
<svg version="1.1" xmlns="http://www.w3.org/2000/svg" width="512" height="512">
<path d="M0 0 C2.28607007 -0.00570941 4.5721373 -0.01267588 6.85820007 -0.02079773 C13.04002478 -0.03868024 19.22170715 -0.03757005 25.40354991 -0.03185534 C30.57490508 -0.02875663 35.74623317 -0.03486348 40.91758448 -0.04089409 C53.81841778 -0.05572202 66.71916232 -0.05213945 79.61999405 -0.04003078 C90.79760327 -0.03009948 101.97504693 -0.0430425 113.15263062 -0.06696498 C124.66001236 -0.09140573 136.16729834 -0.10055291 147.67470747 -0.09431225 C154.12318094 -0.09094889 160.57151763 -0.09331673 167.01997185 -0.11056328 C173.08499315 -0.12607778 179.14969927 -0.12202665 185.21470833 -0.10325813 C187.4329739 -0.09958487 189.65126307 -0.10264362 191.86950684 -0.11314392 C209.00825235 -0.18804234 222.67198325 0.95571317 236.05102539 12.77905273 C243.44102234 21.16769792 249.66565345 30.41379371 249.22566223 42.05006409 C249.11280878 43.48434016 248.994063 44.91816025 248.87060547 46.3515625 C248.23862135 54.54929181 247.836607 62.7391825 247.55707264 70.95629978 C247.37938091 75.90811738 247.12602939 80.82697163 246.671875 85.76171875 C244.73100602 106.63390594 244.73100602 106.63390594 250.36352539 126.40405273 C253.32188309 129.7894169 256.6663977 132.40336299 260.27954102 135.06176758 C261.24109635 135.77339145 262.20265169 136.48501532 263.19334507 137.21820354 C264.67926608 138.31475372 264.67926608 138.31475372 266.19520569 139.43345642 C281.6181226 150.88152869 293.78977155 162.04595372 296.76199341 181.82302856 C300.61409384 212.20080544 298.78139117 243.48958473 297.64578289 273.99650711 C297.16079239 287.28605422 296.94721426 300.57317872 296.74821639 313.86955738 C296.44694151 333.48302878 296.04417973 353.09330214 295.39464951 372.69854164 C295.32524476 374.79945545 295.2583086 376.90045258 295.19409943 379.0015316 C294.08890961 414.57778229 294.08890961 414.57778229 281.55102539 427.90405273 C267.04811144 440.90378559 251.19438917 440.84981305 232.72705078 440.80810547 C230.44098071 440.81381488 228.15491348 440.82078135 225.86885071 440.8289032 C219.68702601 440.84678571 213.50534363 440.84567552 207.32350087 440.83996081 C202.15214571 440.8368621 196.98081761 440.84296895 191.8094663 440.84899956 C178.908633 440.86382749 166.00788846 440.86024492 153.10705673 440.84813625 C141.92944751 440.83820495 130.75200385 440.85114797 119.57442016 440.87507045 C108.06703842 440.8995112 96.55975244 440.90865838 85.05234331 440.90241772 C78.60386984 440.89905436 72.15553315 440.90142219 65.70707893 440.91866875 C59.64205763 440.93418325 53.57735151 440.93013212 47.51234245 440.9113636 C45.29407688 440.90769034 43.07578771 440.91074908 40.85754395 440.92124939 C24.34310621 440.99341951 8.99810716 440.15866031 -3.85522461 428.36889648 C-11.56541365 420.21278233 -16.7016068 410.27893592 -16.76147461 398.90405273 C-16.72022461 397.74905273 -16.67897461 396.59405273 -16.63647461 395.40405273 C-17.89459961 395.48655273 -19.15272461 395.56905273 -20.44897461 395.65405273 C-30.51685626 395.63822273 -39.99450071 390.61421511 -47.32397461 383.96655273 C-48.08709961 383.12092773 -48.85022461 382.27530273 -49.63647461 381.40405273 C-50.46147461 380.51717773 -51.28647461 379.63030273 -52.13647461 378.71655273 C-61.25343984 367.41381667 -61.94407904 354.25562543 -61.89044189 340.27294922 C-61.89356188 339.00526168 -61.89668186 337.73757414 -61.89989638 336.43147182 C-61.90817462 332.94722667 -61.90415122 329.46309236 -61.89792395 325.97884703 C-61.89337162 322.20782473 -61.90039692 318.43682061 -61.90588379 314.665802 C-61.91474993 307.29196455 -61.91286821 299.91816794 -61.90705851 292.54432893 C-61.90253105 286.54833788 -61.90193379 280.55235823 -61.90410614 274.55636597 C-61.90441261 273.70109454 -61.90471907 272.84582311 -61.90503483 271.96463436 C-61.90567431 270.22685154 -61.90632274 268.48906872 -61.90698001 266.75128591 C-61.91267516 250.47831744 -61.90613822 234.20537155 -61.89537928 217.93240678 C-61.88644451 203.98707174 -61.88799678 190.04176999 -61.8972168 176.09643555 C-61.90793384 159.87938038 -61.91212591 143.66234497 -61.90599227 127.44528675 C-61.90535521 125.71410434 -61.90472647 123.98292192 -61.90410614 122.2517395 C-61.90379759 121.40009372 -61.90348904 120.54844793 -61.90317114 119.6709947 C-61.9014485 113.68624707 -61.90434998 107.70151204 -61.90906525 101.71676636 C-61.91469003 94.41758682 -61.91312414 87.11845027 -61.90250376 79.81927562 C-61.89726849 76.09929207 -61.89515347 72.37938005 -61.90180206 68.65939713 C-61.9089157 64.61792196 -61.90038859 60.57662544 -61.89044189 56.53515625 C-61.89490334 55.37210181 -61.89936478 54.20904737 -61.90396142 53.01074886 C-61.83306843 38.10839147 -59.37875048 24.12251634 -48.82397461 12.90405273 C-34.32106066 -0.09568012 -18.46733839 -0.04170758 0 0 Z " fill="#EBECF0" transform="translate(139.636474609375,35.595947265625)"/>
<path d="M0 0 C2.28607007 -0.00570941 4.5721373 -0.01267588 6.85820007 -0.02079773 C13.04002478 -0.03868024 19.22170715 -0.03757005 25.40354991 -0.03185534 C30.57490508 -0.02875663 35.74623317 -0.03486348 40.91758448 -0.04089409 C53.81841778 -0.05572202 66.71916232 -0.05213945 79.61999405 -0.04003078 C90.79760327 -0.03009948 101.97504693 -0.0430425 113.15263062 -0.06696498 C124.66001236 -0.09140573 136.16729834 -0.10055291 147.67470747 -0.09431225 C154.12318094 -0.09094889 160.57151763 -0.09331673 167.01997185 -0.11056328 C173.08499315 -0.12607778 179.14969927 -0.12202665 185.21470833 -0.10325813 C187.4329739 -0.09958487 189.65126307 -0.10264362 191.86950684 -0.11314392 C209.00825235 -0.18804234 222.67198325 0.95571317 236.05102539 12.77905273 C243.4490751 21.17683889 249.6504292 30.41234265 249.23239136 42.05679321 C249.12233125 43.49408399 249.00664938 44.93095121 248.88647461 46.36743164 C242.9936427 96.68547672 242.9936427 96.68547672 260.00024414 141.73217773 C269.09699358 152.03000954 280.25661068 160.6687071 291.73780823 168.1232605 C292.27429489 168.54592194 292.81078156 168.96858337 293.36352539 169.40405273 C293.36352539 170.06405273 293.36352539 170.72405273 293.36352539 171.40405273 C282.11434123 171.4971228 270.8652501 171.56800449 259.61575794 171.61130142 C254.39099751 171.63209177 249.16650235 171.66025158 243.94189453 171.70581055 C238.89088557 171.74957531 233.84013023 171.773254 228.78894615 171.78356171 C226.87100933 171.79089848 224.95308488 171.805224 223.03525734 171.82697296 C206.21545745 172.00996572 192.98851718 170.29951164 180.14477539 158.33764648 C170.88288183 148.67832092 167.01569545 136.69094287 167.13647461 123.50952148 C167.13618256 122.65979263 167.1358905 121.81006378 167.1355896 120.93458557 C167.13697198 118.15346715 167.15248129 115.37262378 167.16821289 112.59155273 C167.17194691 110.65242662 167.17479204 108.71329861 167.17678833 106.77416992 C167.18439417 101.69100662 167.20401628 96.60795912 167.22619629 91.52484131 C167.24672062 86.32964646 167.25580409 81.13443276 167.26586914 75.93920898 C167.28726521 65.76077292 167.32136409 55.58242249 167.36352539 45.40405273 C148.40423409 45.44129796 129.44514276 45.50127384 110.48601151 45.58795547 C101.68199629 45.62768365 92.87806966 45.66010764 84.07397461 45.67504883 C76.39602515 45.68809771 68.71827111 45.71514449 61.04043174 45.7586658 C56.97892598 45.78120821 52.91766059 45.79696778 48.85608673 45.79593658 C45.02444536 45.79518566 41.19333387 45.8133075 37.36182976 45.84522057 C35.96397002 45.85366162 34.56605044 45.85550939 33.16817665 45.84985542 C18.61096939 45.79886948 7.10147021 49.19516316 -3.63647461 59.28295898 C-13.70246229 70.02145877 -15.93806816 81.98192119 -15.91494751 96.21081543 C-15.92073991 97.49171916 -15.92653231 98.7726229 -15.93250024 100.0923419 C-15.94824184 103.63157435 -15.95172769 107.17072728 -15.95314884 110.7099905 C-15.95685313 114.53267598 -15.97201372 118.35531836 -15.98576355 122.17797852 C-16.00800793 128.79565476 -16.02303816 135.41331561 -16.03313065 142.03102112 C-16.04773305 151.59903756 -16.07327426 161.16700037 -16.10146193 170.73498529 C-16.14690155 186.25942585 -16.18352805 201.78387414 -16.21459961 217.30834961 C-16.24479674 232.38648842 -16.27915237 247.46460832 -16.3190918 262.54272461 C-16.32278412 263.93748586 -16.32278412 263.93748586 -16.32655104 265.3604241 C-16.33892586 270.02528944 -16.35138235 274.69015456 -16.36387944 279.35501957 C-16.46740486 318.03800441 -16.55662209 356.72101221 -16.63647461 395.40405273 C-18.07384194 395.42301704 -19.51128184 395.4365323 -20.94873047 395.44775391 C-21.74919296 395.45586594 -22.54965546 395.46397797 -23.37437439 395.47233582 C-32.15983155 395.20714063 -40.97733038 389.72281145 -47.32397461 383.96655273 C-48.08709961 383.12092773 -48.85022461 382.27530273 -49.63647461 381.40405273 C-50.46147461 380.51717773 -51.28647461 379.63030273 -52.13647461 378.71655273 C-61.25343984 367.41381667 -61.94407904 354.25562543 -61.89044189 340.27294922 C-61.89356188 339.00526168 -61.89668186 337.73757414 -61.89989638 336.43147182 C-61.90817462 332.94722667 -61.90415122 329.46309236 -61.89792395 325.97884703 C-61.89337162 322.20782473 -61.90039692 318.43682061 -61.90588379 314.665802 C-61.91474993 307.29196455 -61.91286821 299.91816794 -61.90705851 292.54432893 C-61.90253105 286.54833788 -61.90193379 280.55235823 -61.90410614 274.55636597 C-61.90441261 273.70109454 -61.90471907 272.84582311 -61.90503483 271.96463436 C-61.90567431 270.22685154 -61.90632274 268.48906872 -61.90698001 266.75128591 C-61.91267516 250.47831744 -61.90613822 234.20537155 -61.89537928 217.93240678 C-61.88644451 203.98707174 -61.88799678 190.04176999 -61.8972168 176.09643555 C-61.90793384 159.87938038 -61.91212591 143.66234497 -61.90599227 127.44528675 C-61.90535521 125.71410434 -61.90472647 123.98292192 -61.90410614 122.2517395 C-61.90379759 121.40009372 -61.90348904 120.54844793 -61.90317114 119.6709947 C-61.9014485 113.68624707 -61.90434998 107.70151204 -61.90906525 101.71676636 C-61.91469003 94.41758682 -61.91312414 87.11845027 -61.90250376 79.81927562 C-61.89726849 76.09929207 -61.89515347 72.37938005 -61.90180206 68.65939713 C-61.9089157 64.61792196 -61.90038859 60.57662544 -61.89044189 56.53515625 C-61.89490334 55.37210181 -61.89936478 54.20904737 -61.90396142 53.01074886 C-61.83306843 38.10839147 -59.37875048 24.12251634 -48.82397461 12.90405273 C-34.32106066 -0.09568012 -18.46733839 -0.04170758 0 0 Z " fill="#C5C9D4" transform="translate(139.636474609375,35.595947265625)"/>
<path d="M0 0 C5.06589306 4.24115058 9.80889679 8.67450565 14.46069336 13.36303711 C15.17062943 14.07443344 15.88056549 14.78582977 16.61201477 15.51878357 C18.14249251 17.05304609 19.67181465 18.58846207 21.20008659 20.1249218 C23.62420292 22.56188501 26.05150206 24.99563787 28.47962952 27.42860413 C34.50837207 33.47066666 40.53165896 39.51815853 46.55511475 45.56549072 C51.65180358 50.68196697 56.7505728 55.796353 61.85208321 60.90802193 C64.2336967 63.29607862 66.61225756 65.68714688 68.9907074 68.07835388 C70.46362595 69.55490804 71.93668682 71.03132025 73.40991211 72.50756836 C74.3882048 73.49361053 74.3882048 73.49361053 75.38626099 74.49957275 C79.19992556 78.31366849 83.13595071 81.92090705 87.21758366 85.4463644 C89.32119335 87.27996682 91.32574616 89.19227748 93.3046875 91.15942383 C94.04485107 91.89320755 94.78501465 92.62699127 95.54760742 93.38301086 C96.31564697 94.14993759 97.08368652 94.91686432 97.875 95.70703125 C99.08990112 96.91693977 99.08990112 96.91693977 100.3293457 98.15129089 C102.02474221 99.84165913 103.7188177 101.53335328 105.41162109 103.22631836 C108.01510193 105.82758911 110.62650696 108.42073132 113.23828125 111.01367188 C114.8885089 112.66096955 116.53826578 114.30873899 118.1875 115.95703125 C118.9717334 116.73407913 119.7559668 117.51112701 120.56396484 118.3117218 C121.27891113 119.02974472 121.99385742 119.74776764 122.73046875 120.48754883 C123.36364014 121.1192952 123.99681152 121.75104156 124.64916992 122.40193176 C126 124 126 124 126 126 C114.75081583 126.09307006 103.50172471 126.16395175 92.25223255 126.20724869 C87.02747212 126.22803904 81.80297696 126.25619885 76.57836914 126.30175781 C71.52736018 126.34552258 66.47660484 126.36920126 61.42542076 126.37950897 C59.50748393 126.38684574 57.58955949 126.40117127 55.67173195 126.42292023 C38.85193206 126.60591299 25.62499179 124.8954589 12.78125 112.93359375 C3.51935644 103.27426819 -0.34782994 91.28689013 -0.22705078 78.10546875 C-0.22734283 77.2557399 -0.22763489 76.40601105 -0.22793579 75.53053284 C-0.22655341 72.74941441 -0.2110441 69.96857105 -0.1953125 67.1875 C-0.19157848 65.24837388 -0.18873335 63.30924587 -0.18673706 61.37011719 C-0.17913122 56.28695389 -0.15950911 51.20390639 -0.1373291 46.12078857 C-0.11680477 40.92559373 -0.1077213 35.73038002 -0.09765625 30.53515625 C-0.07626018 20.35672019 -0.0421613 10.17836976 0 0 Z " fill="#D9DCE3" transform="translate(307,81)"/>
<path d="M0 0 C1.73057396 -0.01073296 1.73057396 -0.01073296 3.49610901 -0.02168274 C4.76315674 -0.02437164 6.03020447 -0.02706055 7.33564758 -0.02983093 C8.68270035 -0.0360971 10.02975139 -0.04274403 11.37680054 -0.04974365 C15.80227966 -0.07077173 20.22775907 -0.0811462 24.65327454 -0.09111023 C26.17828197 -0.09515853 27.70328922 -0.09927547 29.22829628 -0.10346031 C36.3947878 -0.12251078 43.56126903 -0.13674101 50.727781 -0.14507228 C58.99175595 -0.15483866 67.25546262 -0.1811429 75.51934308 -0.22157317 C81.91183466 -0.25177098 88.30424951 -0.2665447 94.69681102 -0.26985329 C98.51228639 -0.2722 102.32747511 -0.28111029 106.14287376 -0.30631447 C109.73561348 -0.32966412 113.32787923 -0.33380116 116.92067528 -0.32355309 C118.8586115 -0.32282482 120.79652402 -0.34186845 122.73435974 -0.36161804 C130.68880959 -0.31432096 136.32009933 0.50801244 142.47749329 5.92842102 C142.92350891 6.49560852 143.36952454 7.06279602 143.82905579 7.64717102 C144.52128235 8.49795227 144.52128235 8.49795227 145.22749329 9.36592102 C149.33810943 15.33547822 149.02920584 21.05070423 148.45405579 28.14717102 C147.20405579 31.64717102 147.20405579 31.64717102 145.45405579 34.14717102 C144.89718079 35.01342102 144.34030579 35.87967102 143.76655579 36.77217102 C139.77456028 40.87205829 133.81917329 43.96040104 128.03573513 44.2813921 C127.07070096 44.28566558 126.10566679 44.28993906 125.11138916 44.29434204 C123.44825684 44.305075 123.44825684 44.305075 121.75152588 44.31602478 C120.53437393 44.31871368 119.31722198 44.32140259 118.06318665 44.32417297 C116.14078659 44.33402977 116.14078659 44.33402977 114.17955017 44.34408569 C109.92601267 44.36511477 105.67247487 44.37549053 101.41889954 44.38545227 C99.95213363 44.38950098 98.4853679 44.39361794 97.01860237 44.39780235 C90.12334634 44.41685557 83.22810099 44.43108341 76.33282369 44.43941432 C68.38864652 44.44917207 60.44474906 44.47545247 52.50067037 44.51591522 C46.35188219 44.54615197 40.20317381 44.56089054 34.05431277 44.56419533 C30.38632164 44.56653824 26.71862928 44.57539798 23.05071831 44.60065651 C18.95053126 44.62843452 14.85096204 44.62408312 10.75068665 44.61714172 C9.54770432 44.62995178 8.34472198 44.64276184 7.10528564 44.65596008 C-1.13819416 44.60523652 -8.33577511 43.41949797 -14.98344421 38.25263977 C-19.7326565 32.42298169 -22.1726509 27.06652069 -21.91703796 19.32295227 C-20.80869767 12.82457811 -17.6133623 7.57957571 -12.42094421 3.58467102 C-8.26984965 0.73382203 -5.00697027 0.02130126 0 0 Z " fill="#FEFEFE" transform="translate(214.5459442138672,368.8528289794922)"/>
<path d="M0 0 C1.12695786 -0.00860046 2.25391571 -0.01720093 3.4150238 -0.02606201 C4.64728195 -0.03032196 5.8795401 -0.03458191 7.1491394 -0.03897095 C9.10101921 -0.05123718 9.10101921 -0.05123718 11.09233093 -0.06375122 C15.40535424 -0.08991683 19.71838697 -0.10527568 24.03146362 -0.11953735 C25.51959107 -0.12489971 27.00771846 -0.13027723 28.49584579 -0.13566971 C34.68955457 -0.15729246 40.88326081 -0.17602621 47.07699776 -0.1872921 C55.93472265 -0.20351274 64.79200766 -0.2366511 73.64956677 -0.29369295 C79.88754396 -0.33248611 86.12540397 -0.35193596 92.36349857 -0.35721266 C96.08408674 -0.36085401 99.80420515 -0.37274376 103.52466202 -0.4053154 C107.68230263 -0.44119316 111.83900665 -0.4370015 115.99679565 -0.42959595 C117.8269648 -0.45420395 117.8269648 -0.45420395 119.69410706 -0.47930908 C127.25779179 -0.42430458 133.21468124 0.68250343 139.46115112 5.15390015 C145.34397991 11.449675 146.8379115 16.51421489 146.73458862 25.0796814 C146.10657208 32.14038167 142.71621239 36.4493695 137.43771362 40.92733765 C133.07231148 43.63630261 128.69928898 44.40411229 123.63037109 44.42132568 C122.48935944 44.42985565 121.34834778 44.43838562 120.17276001 44.44717407 C118.93519958 44.4462677 117.69763916 44.44536133 116.4225769 44.44442749 C115.10806549 44.45114471 113.79355408 44.45786194 112.43920898 44.46478271 C108.84408171 44.48240102 105.24904973 44.4871363 101.65388346 44.48841429 C99.40479328 44.4898387 97.15572711 44.49411377 94.90664291 44.49940872 C87.05191263 44.51789454 79.1972501 44.52608107 71.34249878 44.52450562 C64.03404238 44.5233043 56.72588134 44.54440824 49.41749966 44.57599294 C43.13109204 44.60218767 36.84478072 44.61287159 30.55831897 44.6115948 C26.80885537 44.61108614 23.05965448 44.6167157 19.31024551 44.6379509 C15.12613131 44.66100279 10.94267478 44.65179293 6.7585144 44.63973999 C4.90824646 44.65659851 4.90824646 44.65659851 3.02059937 44.67379761 C-5.43192416 44.61195838 -10.5725644 43.30889916 -17.28884888 37.96640015 C-21.74361214 32.39794607 -24.29055537 26.56477328 -23.92556763 19.3531189 C-22.80907424 13.00376759 -19.38807897 8.29348682 -14.53884888 4.15390015 C-9.65016871 0.8152893 -5.86081112 0.03336347 0 0 Z " fill="#FEFEFE" transform="translate(216.53884887695313,283.8460998535156)"/>
</svg>
